# xmcd CD database file generated by Grip 3.3.0
# 
# Track frame offsets:
#       182
#       13227
#       26820
#       40552
#       60057
#       66030
#       70307
#       82095
#       92535
#       102477
#       108537
#       121852
#       124957
#       134777
#       141467
#       154825
#       168985
# 
# Disc length: 2449 seconds
# 
# Revision: 3
# Processed by: cddbd v1.5.1PL0 Copyright (c) Steve Scherf et al.
# Submitted via: Grip 3.3.0
# 
DISCID=f1098f11
DTITLE=Leadbelly - 16 Greatest Songs
DYEAR=1990
DGENRE=Blues
TTITLE0=Goodnight Irene
TTITLE1=Medley: Look, Looky Yonder - Black Betty
TTITLE2=Where Did You Sleep Last Night
TTITLE3=John Hardy
TTITLE4=Big Fat Woman
TTITLE5=Line Em'
TTITLE6=The Boll Weevil Song
TTITLE7=Blue Tail Fly
TTITLE8=On A Monday
TTITLE9=Whoa Back Buck
TTITLE10=Tell Me Baby
TTITLE11=Julie Ann Johnson
TTITLE12=How Long
TTITLE13=Noted Rider
TTITLE14=Backwater Blues
TTITLE15=Yellow Gal
TTITLE16=The House Of The Rising Sun
EXTD=
EXTT0=
EXTT1=
EXTT2=
EXTT3=
EXTT4=
EXTT5=
EXTT6=
EXTT7=
EXTT8=
EXTT9=
EXTT10=
EXTT11=
EXTT12=
EXTT13=
EXTT14=
EXTT15=
EXTT16=
PLAYORDER=
